<svg width="62" height="62" viewBox="0 0 62 62" fill="none" xmlns="http://www.w3.org/2000/svg">
<mask id="mask0" style="mask-type:alpha" maskUnits="userSpaceOnUse" x="0" y="0" width="62" height="62">
<rect width="62" height="62" fill="#C4C4C4"/>
</mask>
<g mask="url(#mask0)">
<path d="M31 8C18.3079 8 8.00004 18.3079 8 31C7.99993 43.6921 18.3079 54 31 54C43.6921 54 54.0001 43.6921 54 31C54 18.3079 43.6921 8 31 8ZM31 9.76923C42.7359 9.76923 52.2307 19.264 52.2308 31C52.2308 42.736 42.736 52.2308 31 52.2308C19.264 52.2308 9.76916 42.736 9.76923 31C9.76925 19.264 19.2641 9.76923 31 9.76923ZM16.8462 16.8462V18.6154C22.1423 18.6154 27.0455 20.1985 31.1831 22.8691C31.0793 23.2007 31.0069 23.5482 31.0069 23.9127C31.0069 25.8566 32.6016 27.4512 34.5454 27.4512C35.1416 27.4512 35.6956 27.2865 36.1902 27.0227C40.6395 31.7674 43.3846 38.1289 43.3846 45.1538H45.1538C45.1538 37.6852 42.2294 30.9083 37.4964 25.8478C37.8646 25.2898 38.0838 24.6262 38.0838 23.9127C38.0839 21.9689 36.4892 20.3742 34.5454 20.3742C33.6023 20.3742 32.7457 20.7541 32.1092 21.3625C27.6999 18.5227 22.4763 16.8462 16.8462 16.8462ZM16.8773 27.4304V29.1997C25.6818 29.1995 32.8004 36.3182 32.8003 45.1227H34.5696C34.5696 35.3619 26.638 27.4303 16.8773 27.4304Z" fill="black"/>
</g>
</svg>
