<svg width="99" height="31" viewBox="0 0 99 31" fill="none" xmlns="http://www.w3.org/2000/svg">
<rect x="1.5" y="1.5" width="28" height="28" fill="white" stroke="#EB0C0C" stroke-width="3"/>
<rect x="7" y="7" width="17" height="17" fill="#ED111D"/>
<path d="M51.8125 12.6035L46.207 19.9961L40.6113 12.6035V24H39.1074V9.99609H40.4062L46.207 17.6035L52.0078 9.99609H53.3066V24H51.8125V12.6035ZM59.0098 22.6035H67.3105V24H57.5059V9.99609H67.1055V11.4023H59.0098V16.002H65.5039V17.3984H59.0098V22.6035ZM80.2012 9.99609H81.6953V24H80.3965L71.8027 12.7012V24H70.2988V9.99609H71.5977L80.2012 21.3047V9.99609ZM88.4336 21.5488C89.2539 22.3822 90.2435 22.7988 91.4023 22.7988C92.5612 22.7988 93.5508 22.3822 94.3711 21.5488C95.1914 20.7155 95.6016 19.6999 95.6016 18.502V9.99609H97.1055V18.502C97.1055 20.0514 96.5423 21.3893 95.416 22.5156C94.2897 23.6354 92.9518 24.1953 91.4023 24.1953C89.8594 24.1953 88.5247 23.6322 87.3984 22.5059C86.2721 21.3796 85.709 20.0449 85.709 18.502V9.99609H87.2031V18.502C87.2031 19.6999 87.6133 20.7155 88.4336 21.5488Z" fill="black"/>
</svg>
